{
  "asset": {
    "generator": "glTF-Transform v4.5.1",
    "version": "2.0",
    "extras": {
      "author": "royalroyaltymodel112 (https://sketchfab.com/royalroyaltymodel112)",
      "license": "CC-BY-4.0 (http://creativecommons.org/licenses/by/4.0/)",
      "source": "https://sketchfab.com/3d-models/twilight-sparkle-5f56454bf21446939962cb5a3de55fc5",
      "title": "Twilight Sparkle"
    }
  },
  "accessors": [
    {
      "type": "SCALAR",
      "componentType": 5123,
      "count": 57294,
      "bufferView": 0,
      "byteOffset": 0
    },
    {
      "type": "SCALAR",
      "componentType": 5123,
      "count": 31272,
      "bufferView": 0,
      "byteOffset": 114588
    },
    {
      "type": "SCALAR",
      "componentType": 5123,
      "count": 1422,
      "bufferView": 0,
      "byteOffset": 177132
    },
    {
      "type": "VEC3",
      "componentType": 5126,
      "count": 10848,
      "bufferView": 1,
      "byteOffset": 0
    },
    {
      "type": "VEC3",
      "componentType": 5126,
      "count": 10848,
      "max": [
        2.8310019969940186,
        2.5338590145111084,
        3.5660269260406494
      ],
      "min": [
        -2.831005096435547,
        -3.3911290168762207,
        -4.000058174133301
      ],
      "bufferView": 1,
      "byteOffset": 12
    },
    {
      "type": "VEC2",
      "componentType": 5126,
      "count": 10848,
      "bufferView": 1,
      "byteOffset": 24
    },
    {
      "type": "VEC3",
      "componentType": 5126,
      "count": 6189,
      "bufferView": 2,
      "byteOffset": 0
    },
    {
      "type": "VEC3",
      "componentType": 5126,
      "count": 6189,
      "max": [
        1.4441859722137451,
        4.560092926025391,
        3.2858290672302246
      ],
      "min": [
        -1.465129017829895,
        -3.248491048812866,
        -3.6633169651031494
      ],
      "bufferView": 2,
      "byteOffset": 12
    },
    {
      "type": "VEC2",
      "componentType": 5126,
      "count": 6189,
      "bufferView": 2,
      "byteOffset": 24
    },
    {
      "type": "VEC3",
      "componentType": 5126,
      "count": 271,
      "bufferView": 3,
      "byteOffset": 0
    },
    {
      "type": "VEC3",
      "componentType": 5126,
      "count": 271,
      "max": [
        1.065850019454956,
        -1.3959300518035889,
        2.328986883163452
      ],
      "min": [
        -1.0661779642105103,
        -2.8080830574035645,
        0.49660199880599976
      ],
      "bufferView": 3,
      "byteOffset": 12
    },
    {
      "type": "VEC2",
      "componentType": 5126,
      "count": 271,
      "bufferView": 3,
      "byteOffset": 24
    }
  ],
  "bufferViews": [
    {
      "buffer": 0,
      "byteOffset": 0,
      "byteLength": 179976,
      "target": 34963
    },
    {
      "buffer": 0,
      "byteOffset": 179976,
      "byteLength": 347136,
      "byteStride": 32,
      "target": 34962
    },
    {
      "buffer": 0,
      "byteOffset": 527112,
      "byteLength": 198048,
      "byteStride": 32,
      "target": 34962
    },
    {
      "buffer": 0,
      "byteOffset": 725160,
      "byteLength": 8672,
      "byteStride": 32,
      "target": 34962
    }
  ],
  "samplers": [
    {
      "magFilter": 9729,
      "minFilter": 9987,
      "wrapS": 10497,
      "wrapT": 10497
    }
  ],
  "textures": [
    {
      "source": 0,
      "sampler": 0
    },
    {
      "source": 1,
      "sampler": 0
    },
    {
      "source": 2,
      "sampler": 0
    }
  ],
  "images": [
    {
      "mimeType": "image/jpeg",
      "uri": "textures/blinn6SG_baseColor.jpeg"
    },
    {
      "mimeType": "image/jpeg",
      "uri": "textures/blinn7SG_baseColor.jpeg"
    },
    {
      "mimeType": "image/jpeg",
      "uri": "textures/blinn8SG_baseColor.jpeg"
    }
  ],
  "buffers": [
    {
      "uri": "scene.bin",
      "byteLength": 733832
    }
  ],
  "materials": [
    {
      "name": "blinn6SG",
      "doubleSided": true,
      "pbrMetallicRoughness": {
        "roughnessFactor": 0.6,
        "metallicFactor": 0,
        "baseColorTexture": {
          "index": 0
        }
      }
    },
    {
      "name": "blinn7SG",
      "doubleSided": true,
      "pbrMetallicRoughness": {
        "roughnessFactor": 0.6,
        "metallicFactor": 0,
        "baseColorTexture": {
          "index": 1
        }
      }
    },
    {
      "name": "blinn8SG",
      "doubleSided": true,
      "pbrMetallicRoughness": {
        "roughnessFactor": 0,
        "metallicFactor": 0,
        "baseColorTexture": {
          "index": 2
        }
      },
      "extensions": {
        "KHR_materials_specular": {}
      }
    }
  ],
  "meshes": [
    {
      "name": "Object_0",
      "primitives": [
        {
          "attributes": {
            "NORMAL": 3,
            "POSITION": 4,
            "TEXCOORD_0": 5
          },
          "mode": 4,
          "material": 0,
          "indices": 0
        }
      ]
    },
    {
      "name": "Object_1",
      "primitives": [
        {
          "attributes": {
            "NORMAL": 6,
            "POSITION": 7,
            "TEXCOORD_0": 8
          },
          "mode": 4,
          "material": 1,
          "indices": 1
        }
      ]
    },
    {
      "name": "Object_2",
      "primitives": [
        {
          "attributes": {
            "NORMAL": 9,
            "POSITION": 10,
            "TEXCOORD_0": 11
          },
          "mode": 4,
          "material": 2,
          "indices": 2
        }
      ]
    }
  ],
  "nodes": [
    {
      "name": "Sketchfab_model",
      "rotation": [
        -0.7071067811865475,
        0,
        0,
        0.7071067811865476
      ],
      "children": [
        1
      ]
    },
    {
      "name": "TwilightSparkle.obj.cleaner.materialmerger.gles",
      "children": [
        2,
        3,
        4
      ]
    },
    {
      "name": "Object_2",
      "mesh": 0
    },
    {
      "name": "Object_3",
      "mesh": 1
    },
    {
      "name": "Object_4",
      "mesh": 2
    }
  ],
  "scenes": [
    {
      "name": "Sketchfab_Scene",
      "nodes": [
        0
      ]
    }
  ],
  "scene": 0,
  "extensionsUsed": [
    "KHR_materials_specular"
  ]
}